# xmcd
#
# Track frame offsets:
#	150
#	15182
#	32380
#	45935
#	62276
#	76158
#	90222
#	106494
#	124946
#	137115
#	164503
#	171855
#
# Disc length: 3578 seconds
#
# Revision: 0
# Processed by: cddbd v1.5.1PL2 Copyright (c) Steve Scherf et al.
# Submitted via: audiograbber 1.83.01
#
DISCID=7f0df80c
DTITLE=Glenda Lynn - I Will
DYEAR=2000
DGENRE=Country
TTITLE0=The Woman Is Smarter
TTITLE1=If You Could Hear My Heart
TTITLE2=You Fool
TTITLE3=Don't Rush Me
TTITLE4=I Will
TTITLE5=I'm Not Crying Anymore
TTITLE6=Blue Baby Blue
TTITLE7=I Always Dream of Texas
TTITLE8=Till A Better Memory Comes Along
TTITLE9=Making Memories Tonight
TTITLE10=untitled
TTITLE11=Daten-CD
EXTD=
EXTT0=
EXTT1=
EXTT2=
EXTT3=
EXTT4=
EXTT5=
EXTT6=
EXTT7=with Dan Seals
EXTT8=
EXTT9=
EXTT10=
EXTT11=
PLAYORDER=
